<svg width="14" height="14" viewBox="0 0 14 14" fill="none" xmlns="http://www.w3.org/2000/svg">
<path d="M7 4.375C5.55275 4.375 4.375 5.55275 4.375 7C4.375 8.44725 5.55275 9.625 7 9.625C8.44725 9.625 9.625 8.44725 9.625 7C9.625 5.55275 8.44725 4.375 7 4.375ZM7 8.75C6.03487 8.75 5.25 7.96513 5.25 7C5.25 6.03487 6.03487 5.25 7 5.25C7.96513 5.25 8.75 6.03487 8.75 7C8.75 7.96513 7.96513 8.75 7 8.75Z" fill="white"/>
<path d="M13.5625 6.5625H12.2281C12.0164 4.01625 9.98375 1.98363 7.4375 1.77188V0.4375C7.4375 0.196 7.2415 0 7 0C6.7585 0 6.5625 0.196 6.5625 0.4375V1.77188C4.01625 1.98363 1.98363 4.01713 1.77188 6.5625H0.4375C0.196 6.5625 0 6.7585 0 7C0 7.2415 0.196 7.4375 0.4375 7.4375H1.77188C1.98363 9.98375 4.01625 12.0164 6.5625 12.2281V13.5625C6.5625 13.804 6.7585 14 7 14C7.2415 14 7.4375 13.804 7.4375 13.5625V12.2281C9.98375 12.0164 12.0164 9.98375 12.2281 7.4375H13.5625C13.804 7.4375 14 7.24237 14 7C14 6.75938 13.804 6.5625 13.5625 6.5625ZM7 11.375C4.58763 11.375 2.625 9.41237 2.625 7C2.625 4.58763 4.58763 2.625 7 2.625C9.41237 2.625 11.375 4.58763 11.375 7C11.375 9.41237 9.41237 11.375 7 11.375Z" fill="white"/>
</svg>
